<svg width="287" height="28" viewBox="0 0 287 28" fill="none" xmlns="http://www.w3.org/2000/svg">
<g clip-path="url(#clip0_6_1720)">
<path d="M10.9197 25.126H0.819458L0.819458 3.62568H10.2137C14.7203 3.62568 17.6944 5.7756 17.6944 9.39749C17.6944 11.549 16.3099 13.286 14.4558 13.9921C16.928 14.3451 18.8134 16.556 18.8134 19.0271C18.8134 22.8859 15.7502 25.126 10.9197 25.126ZM8.62406 8.42644H7.5348V12.4348H8.62406C10.5673 12.4348 11.5675 11.7558 11.5675 10.3399C11.568 8.89712 10.5079 8.42644 8.62406 8.42644ZM9.71441 16.3201H7.5348V20.3274H9.71441C11.7159 20.3274 12.4527 19.5609 12.4527 18.2385C12.4532 16.9365 11.4795 16.3201 9.71441 16.3201Z" fill="white" fill-opacity="0.58"/>
<path d="M38.7495 25.1259L37.6009 21.2082H31.3001L30.153 25.1259H23.2871L30.7398 3.62562H38.5147L45.9658 25.1259H38.7495ZM34.4502 10.5731L32.8309 16.0248H36.0695L34.4502 10.5731Z" fill="white" fill-opacity="0.58"/>
<path d="M61.3224 25.4768C55.3719 25.4768 50.8966 22.4163 50.8966 15.2308V3.62565H58.0821V15.9708C58.0821 18.2919 59.3209 19.7649 61.3224 19.7649C63.3238 19.7649 64.5626 18.2919 64.5626 15.9708V3.62565H71.7492V15.2308C71.7492 22.4163 67.2696 25.4768 61.3224 25.4768Z" fill="white" fill-opacity="0.58"/>
<path d="M86.4844 25.4769C82.9824 25.4769 79.9505 24.2117 77.9463 22.4725L80.8033 17.9098C82.8032 19.5027 84.5418 20.2405 86.3981 20.2405C87.4291 20.2405 88.1648 19.7936 88.1648 19.0584C88.1648 18.0291 87.3416 17.6469 84.7194 16.8491C80.8028 15.6427 78.8283 13.9635 78.8283 10.4285C78.8283 5.77565 82.4804 3.27325 87.6935 3.27325C90.4917 3.27325 93.2295 4.30314 94.6728 5.45125L91.8466 10.1343C90.3741 9.0753 89.0182 8.51663 87.4291 8.51663C86.0742 8.51663 85.5728 9.10498 85.5728 9.72141C85.5728 10.3988 86.0748 10.8128 88.9021 11.6365C92.7874 12.7539 94.9076 14.2566 94.9076 18.2914C94.9076 22.5945 91.6695 25.4769 86.4844 25.4769Z" fill="white" fill-opacity="0.58"/>
<path d="M112.116 25.4769C105.579 25.4769 100.896 20.8856 100.896 14.4671C100.896 8.04326 105.757 3.2738 112.234 3.2738C115.68 3.2738 117.978 4.74739 119.832 6.33919L116.298 11.1367C115.092 9.95892 113.942 9.13414 112.086 9.13414C109.7 9.13414 107.932 11.1977 107.932 14.2895C107.932 17.3819 109.642 19.616 112.501 19.616C114.09 19.616 115.563 18.9116 116.828 17.7355L120.276 22.4175C118.212 24.2122 115.886 25.4769 112.116 25.4769Z" fill="white" fill-opacity="0.58"/>
<path d="M139.698 25.1259V17.6155H134.28V25.1259H127.096V3.62563H134.28V11.5495H139.698V3.62563H146.889V25.1259H139.698Z" fill="white" fill-opacity="0.58"/>
<path d="M187.372 25.1259V3.62559H194.265V19.6483H201.304V25.1259H187.372Z" fill="white" fill-opacity="0.58"/>
<path d="M216.811 25.4769C210.064 25.4769 205.263 20.8246 205.263 14.4061C205.263 7.98551 210.123 3.27327 216.87 3.27327C223.611 3.27327 228.415 7.92775 228.415 14.3451C228.415 20.7668 223.552 25.4769 216.811 25.4769ZM216.811 8.98679C214.189 8.98679 212.304 11.2538 212.304 14.3457C212.304 17.437 214.248 19.7656 216.87 19.7656C219.49 19.7656 221.373 17.499 221.373 14.4067C221.373 11.3132 219.431 8.98679 216.811 8.98679Z" fill="white" fill-opacity="0.58"/>
<path d="M250.465 25.126V14.6425L247.136 20.8855H243.865L240.448 14.6425V25.126H233.676V3.6257H240.652L245.546 12.2011L250.077 3.6257H257.648V25.126H250.465Z" fill="white" fill-opacity="0.58"/>
<path d="M274.553 25.1259H264.448V3.62558H273.845C278.355 3.62558 281.33 5.7755 281.33 9.39739C281.33 11.5489 279.944 13.2859 278.088 13.992C280.561 14.345 282.444 16.5559 282.444 19.027C282.445 22.8858 279.384 25.1259 274.553 25.1259ZM272.256 8.42634H271.166V12.4347H272.256C274.202 12.4347 275.203 11.7557 275.203 10.3398C275.203 8.89702 274.142 8.42634 272.256 8.42634ZM273.348 16.32H271.167V20.3273H273.348C275.351 20.3273 276.086 19.5608 276.086 18.2384C276.086 16.9364 275.113 16.32 273.348 16.32Z" fill="white" fill-opacity="0.58"/>
<path d="M170.601 10.8871H163.652V17.8685H170.601V10.8871Z" fill="white" fill-opacity="0.58"/>
<path d="M170.6 3.62558H163.653V10.8894H170.6V3.62558Z" fill="white" fill-opacity="0.58"/>
<path d="M170.6 17.8665H163.653V25.1292H170.6V17.8665Z" fill="white" fill-opacity="0.58"/>
<path d="M163.654 10.8871H156.358V17.8675H163.654V10.8871Z" fill="white" fill-opacity="0.58"/>
<path d="M177.859 10.8871H170.599V17.8675H177.859V10.8871Z" fill="white" fill-opacity="0.58"/>
</g>
<defs>
<clipPath id="clip0_6_1720">
<rect width="286.081" height="26.9888" fill="white" transform="translate(0.819458 0.880753)"/>
</clipPath>
</defs>
</svg>
