<svg width="120" height="112" viewBox="0 0 120 112" fill="none" xmlns="http://www.w3.org/2000/svg">
<g clip-path="url(#clip0_6_1742)">
<path d="M84.223 48.2819C84.223 49.0267 83.2304 50.0194 82.2383 51.5085C78.2682 56.4728 69.3363 65.1603 69.3363 87.0033C69.3363 98.1728 71.0733 102.889 71.0733 108.102C71.0733 110.584 70.577 111.825 69.3363 111.825C66.6074 111.825 61.6452 99.91 61.6452 85.762C61.6452 55.7285 80.5012 47.5372 83.4786 47.5372C83.9749 47.5372 84.223 47.7854 84.223 48.2819ZM36.8344 47.5372C39.8118 47.5372 58.4197 55.7285 58.4197 85.5138C58.4197 99.6624 53.7059 111.576 50.7285 111.576C49.4877 111.576 48.9918 110.335 48.9918 107.853C48.9918 102.64 50.7285 97.9246 50.7285 86.7551C50.7285 65.1603 41.7967 56.2246 37.8269 51.2606C36.5862 49.7711 35.8422 48.7784 35.8422 48.0337C36.0899 47.7854 36.3381 47.5372 36.8344 47.5372Z" fill="white" fill-opacity="0.58"/>
<path d="M53.2192 53.4965C53.2192 57.4678 56.1964 60.4466 60.1663 60.4466C63.8879 60.4466 66.8649 57.4678 66.8649 53.4965C66.8649 49.5252 63.8879 46.5466 59.9181 46.5466C56.4445 46.5466 53.2192 49.5252 53.2192 53.4965Z" fill="white" fill-opacity="0.58"/>
<path d="M60.1977 21.0283C57.4688 19.7873 54.7396 17.3051 54.7396 12.3409C54.7396 7.62417 56.9725 2.90916 60.1977 0.922942C63.4233 2.90916 65.6563 7.62417 65.6563 12.3409C65.6563 17.3051 62.927 19.5389 60.1977 21.0283ZM118.751 97.726C109.075 91.769 94.1887 85.5637 72.6033 83.5777C72.6033 83.826 72.3552 85.3154 72.3552 87.0532C72.3552 87.7973 72.3552 88.79 72.6033 88.79C93.6922 90.0312 108.579 94.4994 118.751 98.2228C118.999 98.2228 119.248 98.47 119.248 98.47C119.248 98.47 119.496 98.47 119.496 98.2228C119.248 97.9742 118.999 97.9742 118.751 97.726ZM71.3626 17.5535C69.6259 16.0641 68.3856 13.8303 69.3778 10.3547C70.3703 7.12826 72.8515 4.39775 75.5808 3.65345C77.3174 5.8872 78.0615 9.362 77.0693 12.8368C75.8285 16.0641 73.3478 17.0568 71.3626 17.5535ZM86.9938 30.7085C86.4975 28.7228 86.4975 26.2406 89.2266 23.7589C91.7077 21.5243 95.181 20.78 97.6621 21.5242C98.1586 24.2548 96.6698 27.4819 94.1887 29.4675C91.4594 31.9494 88.9783 31.4532 86.9938 30.7085ZM87.4895 50.5655C88.2343 48.5798 89.4749 46.5941 92.9482 46.0976C96.1733 45.8494 99.3992 46.8424 101.135 49.0763C99.8949 51.5584 97.1655 53.2958 93.9405 53.5441C90.4671 54.0406 88.73 52.3032 87.4895 50.5655ZM81.7834 57.7637C83.0237 56.2746 84.7604 54.785 87.7378 55.5297C90.4671 56.0263 92.9482 58.012 93.9405 60.2459C92.4516 61.9833 89.4749 62.728 86.4975 62.2316C83.52 61.4868 82.2797 59.5011 81.7834 57.7637ZM64.6637 38.8993C62.6789 37.1619 60.9422 34.4315 62.183 30.212C63.4233 26.2406 66.4007 23.0137 69.6259 22.2694C71.8589 24.7515 72.6033 29.2193 71.3626 33.1906C70.1222 37.1619 67.1448 38.6511 64.6637 38.8993ZM72.1071 43.3672C71.3626 41.1333 71.6108 38.1549 74.5882 35.6728C77.3174 33.1906 81.2871 32.1976 84.2644 33.1906C84.7604 36.1692 83.0237 39.8923 80.2945 42.1263C77.0693 44.6085 74.34 44.3602 72.1071 43.3672ZM77.0693 27.2336C75.8285 24.9999 74.8363 21.7726 77.3174 18.0494C79.5504 14.5746 83.52 12.0925 86.9938 12.3409C88.4817 15.3189 87.986 20.0357 85.5049 23.5105C83.0237 27.2336 79.7985 27.7297 77.0693 27.2336ZM87.2412 41.1333C87.2412 38.6511 88.2343 35.6728 91.9559 33.9353C95.6775 32.4459 99.6466 32.6941 102.376 34.4315C101.88 37.4102 99.3992 40.6372 95.6776 42.3746C91.9559 44.112 89.2266 42.8711 87.2412 41.1333ZM0.900146 98.2228C1.14829 98.47 1.39644 98.2228 1.64458 98.2228C11.8169 94.4994 26.7032 90.0312 47.7925 88.79C47.7925 88.5417 48.0407 87.549 48.0407 87.0532C48.0407 85.5637 47.7925 83.826 47.7925 83.5777C26.2073 85.5637 11.5687 91.769 1.64458 97.726C1.14829 97.9742 0.900146 97.9742 0.900146 98.2228ZM43.3266 12.5884C42.334 9.362 42.8303 5.63881 44.8151 3.40507C47.5444 4.14936 50.0255 6.87987 51.0178 10.1063C52.0103 13.582 50.7699 15.8157 49.0329 17.3051C46.7999 17.0568 44.3188 16.0641 43.3266 12.5884ZM25.9591 29.7154C23.478 27.4819 21.9891 24.2548 22.4854 21.7726C24.9665 21.0283 28.4402 21.7726 30.921 24.0064C33.6502 26.2406 33.6502 28.7228 33.1539 30.9567C31.1692 31.4532 28.688 31.9494 25.9591 29.7154ZM26.455 53.5441C23.2298 53.2958 20.2524 51.3102 19.0121 49.0763C20.7487 47.0906 23.9743 45.8494 27.1995 46.0976C30.6732 46.3459 31.9136 48.5798 32.658 50.5655C31.6655 52.3032 29.6806 54.0406 26.455 53.5441ZM33.8984 61.9833C31.1692 62.4798 28.1921 61.7351 26.455 59.9977C27.1995 57.7637 29.6806 56.0263 32.658 55.5297C35.6351 54.785 37.3721 56.2746 38.3644 57.7637C37.8681 59.5011 36.8758 61.4868 33.8984 61.9833ZM48.7848 33.1906C47.5444 29.2193 48.2888 24.7515 50.5218 22.2694C53.747 23.2621 56.7244 26.4888 57.9651 30.212C59.2055 34.4315 57.4688 37.1619 55.7322 38.8993C53.0029 38.6511 50.0255 37.1619 48.7848 33.1906ZM40.101 42.1263C37.3721 39.6441 35.6351 36.1692 36.1314 33.1906C39.1088 32.1976 42.8303 33.1906 45.8077 35.6728C48.7848 38.1549 48.7848 41.1333 48.2888 43.3672C45.8077 44.3602 43.0784 44.6085 40.101 42.1263ZM34.891 23.5105C32.658 20.0357 32.1617 15.5673 33.4021 12.3409C36.8758 12.3409 40.5973 14.5746 43.0784 18.0494C45.5596 21.7726 44.567 24.7515 43.0784 27.2336C40.3492 27.7297 37.1239 27.2336 34.891 23.5105ZM24.4703 42.3746C20.9969 40.6372 18.2676 37.4102 17.7714 34.4315C20.5006 32.6941 24.7184 32.4459 28.1921 34.1833C31.9136 35.921 32.9062 38.6511 32.9062 41.3815C30.921 42.8711 28.1921 44.112 24.4703 42.3746Z" fill="white" fill-opacity="0.58"/>
</g>
<defs>
<clipPath id="clip0_6_1742">
<rect width="118.592" height="110.899" fill="white" transform="translate(0.900146 0.925537)"/>
</clipPath>
</defs>
</svg>
