<svg width="131" height="46" viewBox="0 0 131 46" fill="none" xmlns="http://www.w3.org/2000/svg">
<rect x="1.12053" y="1.49235" width="128.771" height="43.6903" rx="4.02411" fill="white"/>
<rect x="1.12053" y="1.49235" width="128.771" height="43.6903" rx="4.02411" stroke="url(#paint0_linear_6_1680)" stroke-width="1.14975"/>
<path d="M29.1986 21.2833H27.6038C27.5095 20.8246 27.3444 20.4216 27.1087 20.0743C26.8772 19.7271 26.5942 19.4356 26.2598 19.1998C25.9297 18.9597 25.5632 18.7796 25.1602 18.6596C24.7572 18.5396 24.3371 18.4795 23.8998 18.4795C23.1024 18.4795 22.38 18.681 21.7327 19.084C21.0896 19.487 20.5773 20.0808 20.1958 20.8653C19.8185 21.6498 19.6299 22.6123 19.6299 23.7526C19.6299 24.893 19.8185 25.8554 20.1958 26.6399C20.5773 27.4245 21.0896 28.0182 21.7327 28.4212C22.38 28.8242 23.1024 29.0257 23.8998 29.0257C24.3371 29.0257 24.7572 28.9657 25.1602 28.8456C25.5632 28.7256 25.9297 28.5477 26.2598 28.3119C26.5942 28.0718 26.8772 27.7782 27.1087 27.4309C27.3444 27.0794 27.5095 26.6764 27.6038 26.222H29.1986C29.0786 26.895 28.8599 27.4974 28.5427 28.0289C28.2254 28.5605 27.831 29.0128 27.3594 29.3858C26.8879 29.7545 26.3584 30.0353 25.7711 30.2282C25.1881 30.4211 24.5643 30.5176 23.8998 30.5176C22.7766 30.5176 21.7777 30.2432 20.9032 29.6945C20.0286 29.1457 19.3405 28.3655 18.8389 27.3537C18.3374 26.342 18.0866 25.1416 18.0866 23.7526C18.0866 22.3636 18.3374 21.1632 18.8389 20.1515C19.3405 19.1398 20.0286 18.3595 20.9032 17.8108C21.7777 17.262 22.7766 16.9877 23.8998 16.9877C24.5643 16.9877 25.1881 17.0841 25.7711 17.277C26.3584 17.4699 26.8879 17.7529 27.3594 18.1259C27.831 18.4946 28.2254 18.9447 28.5427 19.4763C28.8599 20.0036 29.0786 20.6059 29.1986 21.2833ZM35.5825 30.5433C34.6908 30.5433 33.9084 30.3311 33.2354 29.9067C32.5666 29.4823 32.0436 28.8885 31.6663 28.1254C31.2933 27.3623 31.1069 26.4706 31.1069 25.4503C31.1069 24.4214 31.2933 23.5233 31.6663 22.7559C32.0436 21.9885 32.5666 21.3926 33.2354 20.9682C33.9084 20.5438 34.6908 20.3316 35.5825 20.3316C36.4742 20.3316 37.2545 20.5438 37.9233 20.9682C38.5963 21.3926 39.1194 21.9885 39.4923 22.7559C39.8696 23.5233 40.0582 24.4214 40.0582 25.4503C40.0582 26.4706 39.8696 27.3623 39.4923 28.1254C39.1194 28.8885 38.5963 29.4823 37.9233 29.9067C37.2545 30.3311 36.4742 30.5433 35.5825 30.5433ZM35.5825 29.18C36.2599 29.18 36.8172 29.0064 37.2545 28.6591C37.6918 28.3119 38.0154 27.8553 38.2255 27.2894C38.4356 26.7235 38.5406 26.1105 38.5406 25.4503C38.5406 24.7901 38.4356 24.1749 38.2255 23.6047C38.0154 23.0345 37.6918 22.5737 37.2545 22.2221C36.8172 21.8706 36.2599 21.6948 35.5825 21.6948C34.9052 21.6948 34.3479 21.8706 33.9106 22.2221C33.4733 22.5737 33.1496 23.0345 32.9396 23.6047C32.7295 24.1749 32.6245 24.7901 32.6245 25.4503C32.6245 26.1105 32.7295 26.7235 32.9396 27.2894C33.1496 27.8553 33.4733 28.3119 33.9106 28.6591C34.3479 29.0064 34.9052 29.18 35.5825 29.18ZM43.8924 24.3957V30.3375H42.3748V20.4602H43.841V22.0035H43.9696C44.2011 21.5019 44.5527 21.0989 45.0242 20.7946C45.4958 20.4859 46.1046 20.3316 46.8505 20.3316C47.5193 20.3316 48.1045 20.4687 48.6061 20.7431C49.1076 21.0132 49.4978 21.4248 49.7764 21.9778C50.0551 22.5265 50.1944 23.221 50.1944 24.0613V30.3375H48.6768V24.1642C48.6768 23.3882 48.4753 22.7837 48.0723 22.3508C47.6693 21.9135 47.1163 21.6948 46.4132 21.6948C45.9288 21.6948 45.4958 21.7999 45.1143 22.0099C44.737 22.22 44.439 22.5265 44.2204 22.9295C44.0018 23.3325 43.8924 23.8212 43.8924 24.3957ZM57.2632 20.4602V21.7463H52.1445V20.4602H57.2632ZM53.6364 18.0937H55.154V27.5081C55.154 27.9368 55.2162 28.2583 55.3405 28.4727C55.4691 28.6827 55.632 28.8242 55.8292 28.8971C56.0307 28.9657 56.2429 29 56.4658 29C56.633 29 56.7702 28.9914 56.8774 28.9742C56.9846 28.9528 57.0703 28.9357 57.1346 28.9228L57.4433 30.2861C57.3404 30.3247 57.1968 30.3632 57.0124 30.4018C56.8281 30.4447 56.5944 30.4661 56.3115 30.4661C55.8828 30.4661 55.4627 30.374 55.0511 30.1896C54.6438 30.0053 54.3052 29.7245 54.0351 29.3472C53.7693 28.97 53.6364 28.4941 53.6364 27.9196V18.0937ZM62.4527 30.569C61.8268 30.569 61.2587 30.4511 60.7486 30.2153C60.2384 29.9753 59.8333 29.6302 59.5332 29.18C59.2331 28.7256 59.0831 28.1769 59.0831 27.5338C59.0831 26.9679 59.1945 26.5092 59.4175 26.1577C59.6404 25.8018 59.9383 25.5232 60.3113 25.3217C60.6843 25.1202 61.0958 24.9701 61.546 24.8715C62.0004 24.7686 62.457 24.6872 62.9157 24.6272C63.5159 24.55 64.0025 24.4921 64.3754 24.4536C64.7527 24.4107 65.0271 24.3399 65.1985 24.2413C65.3743 24.1427 65.4622 23.9713 65.4622 23.7269V23.6755C65.4622 23.041 65.2886 22.548 64.9413 22.1964C64.5984 21.8449 64.0775 21.6691 63.3787 21.6691C62.6542 21.6691 62.0861 21.8277 61.6746 22.145C61.263 22.4622 60.9737 22.8009 60.8065 23.161L59.366 22.6466C59.6232 22.0464 59.9662 21.5791 60.3949 21.2447C60.8279 20.906 61.2995 20.6702 61.8096 20.5373C62.3241 20.4001 62.8299 20.3316 63.3272 20.3316C63.6445 20.3316 64.0089 20.3701 64.4204 20.4473C64.8363 20.5202 65.2371 20.6724 65.623 20.9039C66.0131 21.1354 66.3368 21.4848 66.594 21.9521C66.8512 22.4193 66.9798 23.0453 66.9798 23.8298V30.3375H65.4622V29H65.385C65.2821 29.2143 65.1107 29.4437 64.8706 29.688C64.6305 29.9324 64.3111 30.1403 63.9124 30.3118C63.5137 30.4833 63.0272 30.569 62.4527 30.569ZM62.6842 29.2057C63.2844 29.2057 63.7902 29.0878 64.2018 28.8521C64.6176 28.6163 64.9306 28.3119 65.1407 27.9389C65.355 27.5659 65.4622 27.1737 65.4622 26.7621V25.3731C65.3979 25.4503 65.2564 25.521 65.0378 25.5853C64.8234 25.6453 64.5748 25.6989 64.2918 25.7461C64.0132 25.789 63.7409 25.8275 63.4752 25.8618C63.2136 25.8919 63.0014 25.9176 62.8385 25.939C62.4441 25.9905 62.0754 26.0741 61.7325 26.1898C61.3938 26.3013 61.1194 26.4706 60.9094 26.6978C60.7036 26.9207 60.6007 27.2251 60.6007 27.611C60.6007 28.1383 60.7957 28.537 61.1859 28.807C61.5803 29.0728 62.0797 29.2057 62.6842 29.2057ZM73.7625 30.5433C72.8365 30.5433 72.0391 30.3247 71.3703 29.8874C70.7015 29.4501 70.1871 28.8478 69.8269 28.0804C69.4668 27.313 69.2868 26.4363 69.2868 25.4503C69.2868 24.4471 69.4711 23.5618 69.8398 22.7945C70.2128 22.0228 70.7315 21.4205 71.396 20.9875C72.0648 20.5502 72.845 20.3316 73.7367 20.3316C74.4312 20.3316 75.0571 20.4602 75.6145 20.7174C76.1718 20.9746 76.6283 21.3347 76.9842 21.7977C77.34 22.2607 77.5608 22.8009 77.6465 23.4182H76.1289C76.0132 22.9681 75.7559 22.5694 75.3572 22.2221C74.9628 21.8706 74.4312 21.6948 73.7625 21.6948C73.1708 21.6948 72.6521 21.8492 72.2063 22.1578C71.7647 22.4622 71.4196 22.8931 71.1709 23.4504C70.9266 24.0034 70.8044 24.6529 70.8044 25.3988C70.8044 26.1619 70.9244 26.8264 71.1645 27.3923C71.4089 27.9582 71.7518 28.3976 72.1934 28.7106C72.6392 29.0235 73.1623 29.18 73.7625 29.18C74.1569 29.18 74.5148 29.1114 74.8364 28.9742C75.1579 28.8371 75.4301 28.6399 75.653 28.3826C75.876 28.1254 76.0346 27.8167 76.1289 27.4566H77.6465C77.5608 28.0397 77.3486 28.5648 77.0099 29.0321C76.6755 29.4951 76.2318 29.8638 75.6788 30.1382C75.13 30.4083 74.4913 30.5433 73.7625 30.5433ZM84.1607 20.4602V21.7463H79.042V20.4602H84.1607ZM80.5338 18.0937H82.0515V27.5081C82.0515 27.9368 82.1136 28.2583 82.238 28.4727C82.3666 28.6827 82.5295 28.8242 82.7267 28.8971C82.9282 28.9657 83.1404 29 83.3633 29C83.5305 29 83.6677 28.9914 83.7749 28.9742C83.882 28.9528 83.9678 28.9357 84.0321 28.9228L84.3407 30.2861C84.2379 30.3247 84.0942 30.3632 83.9099 30.4018C83.7256 30.4447 83.4919 30.4661 83.209 30.4661C82.7803 30.4661 82.3601 30.374 81.9486 30.1896C81.5413 30.0053 81.2026 29.7245 80.9325 29.3472C80.6667 28.97 80.5338 28.4941 80.5338 27.9196V18.0937ZM100.385 17.1677H101.98V25.8876C101.98 26.7878 101.768 27.5917 101.343 28.299C100.923 29.0021 100.329 29.5573 99.5619 29.9646C98.7945 30.3675 97.8942 30.569 96.8611 30.569C95.8279 30.569 94.9276 30.3675 94.1602 29.9646C93.3928 29.5573 92.7969 29.0021 92.3725 28.299C91.9524 27.5917 91.7423 26.7878 91.7423 25.8876V17.1677H93.3371V25.759C93.3371 26.402 93.4786 26.9743 93.7615 27.4759C94.0445 27.9732 94.4475 28.3655 94.9705 28.6527C95.4978 28.9357 96.128 29.0771 96.8611 29.0771C97.5942 29.0771 98.2244 28.9357 98.7517 28.6527C99.279 28.3655 99.6819 27.9732 99.9606 27.4759C100.244 26.9743 100.385 26.402 100.385 25.759V17.1677ZM111.955 22.6723L110.592 23.0581C110.506 22.8309 110.38 22.6101 110.213 22.3958C110.05 22.1771 109.827 21.9971 109.544 21.8556C109.261 21.7141 108.899 21.6434 108.457 21.6434C107.853 21.6434 107.349 21.7827 106.946 22.0614C106.547 22.3357 106.348 22.6851 106.348 23.1096C106.348 23.4868 106.485 23.7848 106.759 24.0034C107.034 24.222 107.462 24.4042 108.045 24.55L109.512 24.9101C110.395 25.1245 111.053 25.4524 111.486 25.894C111.919 26.3313 112.135 26.895 112.135 27.5852C112.135 28.1511 111.972 28.657 111.647 29.1029C111.325 29.5487 110.875 29.9002 110.296 30.1575C109.717 30.4147 109.044 30.5433 108.277 30.5433C107.269 30.5433 106.436 30.3247 105.775 29.8874C105.115 29.4501 104.697 28.8113 104.521 27.9711L105.962 27.611C106.099 28.1426 106.358 28.5413 106.74 28.807C107.126 29.0728 107.63 29.2057 108.251 29.2057C108.959 29.2057 109.52 29.0557 109.936 28.7556C110.356 28.4512 110.566 28.0868 110.566 27.6624C110.566 27.3194 110.446 27.0322 110.206 26.8007C109.966 26.5649 109.597 26.3892 109.1 26.2734L107.454 25.8876C106.549 25.6732 105.885 25.341 105.46 24.8908C105.04 24.4364 104.83 23.8684 104.83 23.1867C104.83 22.6294 104.987 22.1364 105.3 21.7077C105.617 21.279 106.048 20.9425 106.592 20.6981C107.141 20.4537 107.763 20.3316 108.457 20.3316C109.434 20.3316 110.202 20.5459 110.759 20.9746C111.321 21.4033 111.719 21.9692 111.955 22.6723Z" fill="black"/>
<defs>
<linearGradient id="paint0_linear_6_1680" x1="0.545654" y1="23.3375" x2="117.063" y2="23.3375" gradientUnits="userSpaceOnUse">
<stop/>
<stop offset="0.0001" stop-color="#DDD3EF" stop-opacity="0.55"/>
<stop offset="0.4375" stop-color="#FDD9FF"/>
<stop offset="1" stop-color="#C1E7FF"/>
</linearGradient>
</defs>
</svg>
