<svg width="198" height="46" viewBox="0 0 198 46" fill="none" xmlns="http://www.w3.org/2000/svg">
<rect x="0.574873" y="1.20353" width="196.85" height="43.8503" rx="4.02411" fill="white"/>
<rect x="0.574873" y="1.20353" width="196.85" height="43.8503" rx="4.02411" stroke="url(#paint0_linear_6_1770)" stroke-width="1.14975"/>
<path d="M9.09478 30.1287V16.9588H13.6991C14.6165 16.9588 15.3732 17.1175 15.9691 17.4347C16.565 17.7477 17.0087 18.1699 17.3002 18.7015C17.5917 19.2288 17.7375 19.814 17.7375 20.4571C17.7375 21.023 17.6367 21.4903 17.4352 21.8589C17.238 22.2276 16.9765 22.5192 16.6507 22.7335C16.3292 22.9479 15.9798 23.1065 15.6025 23.2094V23.338C16.0055 23.3637 16.4106 23.5052 16.8179 23.7624C17.2252 24.0196 17.566 24.3883 17.8404 24.8685C18.1147 25.3486 18.2519 25.9359 18.2519 26.6304C18.2519 27.2906 18.1019 27.8844 17.8018 28.4117C17.5017 28.939 17.028 29.357 16.3806 29.6657C15.7333 29.9743 14.8909 30.1287 13.8534 30.1287H9.09478ZM10.6896 28.7139H13.8534C14.8952 28.7139 15.6347 28.5124 16.072 28.1095C16.5135 27.7022 16.7343 27.2092 16.7343 26.6304C16.7343 26.1846 16.6207 25.773 16.3935 25.3958C16.1663 25.0142 15.8426 24.7098 15.4225 24.4826C15.0023 24.2511 14.505 24.1354 13.9306 24.1354H10.6896V28.7139ZM10.6896 22.7464H13.6476C14.1278 22.7464 14.5608 22.652 14.9466 22.4634C15.3367 22.2748 15.6454 22.009 15.8726 21.666C16.1041 21.3231 16.2199 20.9201 16.2199 20.4571C16.2199 19.8783 16.0184 19.3875 15.6154 18.9845C15.2124 18.5772 14.5736 18.3736 13.6991 18.3736H10.6896V22.7464ZM24.6793 30.3344C23.7876 30.3344 23.0052 30.1222 22.3321 29.6978C21.6633 29.2734 21.1403 28.6796 20.7631 27.9165C20.3901 27.1535 20.2036 26.2617 20.2036 25.2414C20.2036 24.2125 20.3901 23.3144 20.7631 22.547C21.1403 21.7796 21.6633 21.1837 22.3321 20.7593C23.0052 20.3349 23.7876 20.1227 24.6793 20.1227C25.571 20.1227 26.3512 20.3349 27.02 20.7593C27.6931 21.1837 28.2161 21.7796 28.5891 22.547C28.9663 23.3144 29.155 24.2125 29.155 25.2414C29.155 26.2617 28.9663 27.1535 28.5891 27.9165C28.2161 28.6796 27.6931 29.2734 27.02 29.6978C26.3512 30.1222 25.571 30.3344 24.6793 30.3344ZM24.6793 28.9712C25.3566 28.9712 25.9139 28.7975 26.3512 28.4503C26.7885 28.103 27.1122 27.6465 27.3222 27.0806C27.5323 26.5147 27.6373 25.9016 27.6373 25.2414C27.6373 24.5812 27.5323 23.966 27.3222 23.3959C27.1122 22.8257 26.7885 22.3648 26.3512 22.0133C25.9139 21.6617 25.3566 21.486 24.6793 21.486C24.0019 21.486 23.4446 21.6617 23.0073 22.0133C22.57 22.3648 22.2464 22.8257 22.0363 23.3959C21.8262 23.966 21.7212 24.5812 21.7212 25.2414C21.7212 25.9016 21.8262 26.5147 22.0363 27.0806C22.2464 27.6465 22.57 28.103 23.0073 28.4503C23.4446 28.7975 24.0019 28.9712 24.6793 28.9712ZM35.4842 30.3344C34.5925 30.3344 33.8102 30.1222 33.1371 29.6978C32.4683 29.2734 31.9453 28.6796 31.568 27.9165C31.1951 27.1535 31.0086 26.2617 31.0086 25.2414C31.0086 24.2125 31.1951 23.3144 31.568 22.547C31.9453 21.7796 32.4683 21.1837 33.1371 20.7593C33.8102 20.3349 34.5925 20.1227 35.4842 20.1227C36.3759 20.1227 37.1562 20.3349 37.825 20.7593C38.498 21.1837 39.0211 21.7796 39.394 22.547C39.7713 23.3144 39.9599 24.2125 39.9599 25.2414C39.9599 26.2617 39.7713 27.1535 39.394 27.9165C39.0211 28.6796 38.498 29.2734 37.825 29.6978C37.1562 30.1222 36.3759 30.3344 35.4842 30.3344ZM35.4842 28.9712C36.1616 28.9712 36.7189 28.7975 37.1562 28.4503C37.5935 28.103 37.9171 27.6465 38.1272 27.0806C38.3373 26.5147 38.4423 25.9016 38.4423 25.2414C38.4423 24.5812 38.3373 23.966 38.1272 23.3959C37.9171 22.8257 37.5935 22.3648 37.1562 22.0133C36.7189 21.6617 36.1616 21.486 35.4842 21.486C34.8069 21.486 34.2496 21.6617 33.8123 22.0133C33.375 22.3648 33.0513 22.8257 32.8413 23.3959C32.6312 23.966 32.5262 24.5812 32.5262 25.2414C32.5262 25.9016 32.6312 26.5147 32.8413 27.0806C33.0513 27.6465 33.375 28.103 33.8123 28.4503C34.2496 28.7975 34.8069 28.9712 35.4842 28.9712ZM43.6913 26.5275L43.6655 24.6498H43.9742L48.2956 20.2513H50.1733L45.569 24.907H45.4404L43.6913 26.5275ZM42.2765 30.1287V16.9588H43.7942V30.1287H42.2765ZM48.5528 30.1287L44.6944 25.2414L45.7748 24.1868L50.4819 30.1287H48.5528ZM60.1262 30.3602C59.5003 30.3602 58.9323 30.2423 58.4221 30.0065C57.9119 29.7664 57.5068 29.4213 57.2067 28.9712C56.9066 28.5167 56.7566 27.968 56.7566 27.3249C56.7566 26.759 56.868 26.3003 57.091 25.9488C57.3139 25.593 57.6118 25.3143 57.9848 25.1128C58.3578 24.9113 58.7693 24.7613 59.2195 24.6627C59.6739 24.5598 60.1305 24.4783 60.5892 24.4183C61.1894 24.3411 61.676 24.2833 62.0489 24.2447C62.4262 24.2018 62.7006 24.1311 62.8721 24.0325C63.0478 23.9339 63.1357 23.7624 63.1357 23.518V23.4666C63.1357 22.8321 62.9621 22.3391 62.6148 21.9876C62.2719 21.636 61.751 21.4603 61.0522 21.4603C60.3277 21.4603 59.7597 21.6189 59.3481 21.9361C58.9365 22.2534 58.6472 22.592 58.48 22.9521L57.0395 22.4377C57.2967 21.8375 57.6397 21.3702 58.0684 21.0358C58.5014 20.6972 58.973 20.4614 59.4831 20.3285C59.9976 20.1913 60.5035 20.1227 61.0008 20.1227C61.318 20.1227 61.6824 20.1613 62.094 20.2384C62.5098 20.3113 62.9106 20.4635 63.2965 20.695C63.6866 20.9265 64.0103 21.2759 64.2675 21.7432C64.5247 22.2105 64.6533 22.8364 64.6533 23.6209V30.1287H63.1357V28.7911H63.0585C62.9556 29.0055 62.7842 29.2348 62.5441 29.4792C62.304 29.7235 61.9846 29.9315 61.5859 30.1029C61.1872 30.2744 60.7007 30.3602 60.1262 30.3602ZM60.3577 28.9969C60.9579 28.9969 61.4638 28.879 61.8753 28.6432C62.2912 28.4074 62.6041 28.103 62.8142 27.7301C63.0285 27.3571 63.1357 26.9648 63.1357 26.5533V25.1643C63.0714 25.2414 62.9299 25.3122 62.7113 25.3765C62.4969 25.4365 62.2483 25.4901 61.9653 25.5372C61.6867 25.5801 61.4145 25.6187 61.1487 25.653C60.8871 25.683 60.6749 25.7087 60.512 25.7302C60.1176 25.7816 59.7489 25.8652 59.406 25.9809C59.0673 26.0924 58.7929 26.2617 58.5829 26.489C58.3771 26.7119 58.2742 27.0163 58.2742 27.4021C58.2742 27.9294 58.4693 28.3281 58.8594 28.5982C59.2538 28.864 59.7532 28.9969 60.3577 28.9969ZM68.9409 24.1868V30.1287H67.4233V20.2513H68.8895V21.7946H69.0181C69.2496 21.2931 69.6011 20.8901 70.0727 20.5857C70.5443 20.277 71.153 20.1227 71.899 20.1227C72.5677 20.1227 73.1529 20.2599 73.6545 20.5342C74.1561 20.8043 74.5462 21.2159 74.8249 21.7689C75.1035 22.3177 75.2429 23.0122 75.2429 23.8524V30.1287H73.7252V23.9553C73.7252 23.1794 73.5238 22.5749 73.1208 22.1419C72.7178 21.7046 72.1648 21.486 71.4617 21.486C70.9772 21.486 70.5443 21.591 70.1627 21.8011C69.7854 22.0111 69.4875 22.3177 69.2689 22.7206C69.0502 23.1236 68.9409 23.6123 68.9409 24.1868ZM86.0157 30.3602C85.3898 30.3602 84.8217 30.2423 84.3116 30.0065C83.8014 29.7664 83.3963 29.4213 83.0962 28.9712C82.7961 28.5167 82.6461 27.968 82.6461 27.3249C82.6461 26.759 82.7575 26.3003 82.9804 25.9488C83.2034 25.593 83.5013 25.3143 83.8743 25.1128C84.2473 24.9113 84.6588 24.7613 85.109 24.6627C85.5634 24.5598 86.02 24.4783 86.4787 24.4183C87.0789 24.3411 87.5654 24.2833 87.9384 24.2447C88.3157 24.2018 88.59 24.1311 88.7615 24.0325C88.9373 23.9339 89.0252 23.7624 89.0252 23.518V23.4666C89.0252 22.8321 88.8516 22.3391 88.5043 21.9876C88.1613 21.636 87.6405 21.4603 86.9417 21.4603C86.2172 21.4603 85.6491 21.6189 85.2376 21.9361C84.826 22.2534 84.5366 22.592 84.3695 22.9521L82.929 22.4377C83.1862 21.8375 83.5292 21.3702 83.9579 21.0358C84.3909 20.6972 84.8625 20.4614 85.3726 20.3285C85.8871 20.1913 86.3929 20.1227 86.8902 20.1227C87.2075 20.1227 87.5719 20.1613 87.9834 20.2384C88.3993 20.3113 88.8001 20.4635 89.1859 20.695C89.5761 20.9265 89.8997 21.2759 90.157 21.7432C90.4142 22.2105 90.5428 22.8364 90.5428 23.6209V30.1287H89.0252V28.7911H88.948C88.8451 29.0055 88.6736 29.2348 88.4336 29.4792C88.1935 29.7235 87.8741 29.9315 87.4754 30.1029C87.0767 30.2744 86.5901 30.3602 86.0157 30.3602ZM86.2472 28.9969C86.8474 28.9969 87.3532 28.879 87.7648 28.6432C88.1806 28.4074 88.4936 28.103 88.7037 27.7301C88.918 27.3571 89.0252 26.9648 89.0252 26.5533V25.1643C88.9609 25.2414 88.8194 25.3122 88.6008 25.3765C88.3864 25.4365 88.1378 25.4901 87.8548 25.5372C87.5762 25.5801 87.3039 25.6187 87.0381 25.653C86.7766 25.683 86.5644 25.7087 86.4015 25.7302C86.0071 25.7816 85.6384 25.8652 85.2955 25.9809C84.9568 26.0924 84.6824 26.2617 84.4723 26.489C84.2666 26.7119 84.1637 27.0163 84.1637 27.4021C84.1637 27.9294 84.3587 28.3281 84.7489 28.5982C85.1433 28.864 85.6427 28.9969 86.2472 28.9969ZM93.3128 33.8327V20.2513H94.7789V21.8204H94.959C95.0705 21.6489 95.2248 21.4302 95.422 21.1644C95.6235 20.8944 95.9107 20.6543 96.2837 20.4442C96.661 20.2299 97.1711 20.1227 97.8142 20.1227C98.6459 20.1227 99.3789 20.3306 100.013 20.7465C100.648 21.1623 101.143 21.7518 101.499 22.5149C101.855 23.278 102.033 24.1782 102.033 25.2157C102.033 26.2617 101.855 27.1685 101.499 27.9358C101.143 28.6989 100.65 29.2905 100.02 29.7107C99.3897 30.1265 98.663 30.3344 97.8399 30.3344C97.2054 30.3344 96.6974 30.2294 96.3158 30.0193C95.9343 29.805 95.6406 29.5628 95.4349 29.2927C95.2291 29.0183 95.0705 28.7911 94.959 28.611H94.8304V33.8327H93.3128ZM94.8047 25.19C94.8047 25.9359 94.914 26.594 95.1326 27.1642C95.3513 27.7301 95.6706 28.1738 96.0908 28.4953C96.5109 28.8125 97.0254 28.9712 97.6341 28.9712C98.2686 28.9712 98.798 28.804 99.2225 28.4696C99.6512 28.1309 99.9727 27.6765 100.187 27.1063C100.406 26.5318 100.515 25.8931 100.515 25.19C100.515 24.4955 100.408 23.8696 100.193 23.3123C99.9834 22.7507 99.664 22.3069 99.2353 21.9811C98.8109 21.651 98.2772 21.486 97.6341 21.486C97.0168 21.486 96.498 21.6424 96.0779 21.9554C95.6578 22.2641 95.3405 22.6971 95.1262 23.2544C94.9118 23.8074 94.8047 24.4526 94.8047 25.19ZM104.348 33.8327V20.2513H105.814V21.8204H105.994C106.105 21.6489 106.26 21.4302 106.457 21.1644C106.658 20.8944 106.946 20.6543 107.319 20.4442C107.696 20.2299 108.206 20.1227 108.849 20.1227C109.681 20.1227 110.414 20.3306 111.048 20.7465C111.683 21.1623 112.178 21.7518 112.534 22.5149C112.89 23.278 113.067 24.1782 113.067 25.2157C113.067 26.2617 112.89 27.1685 112.534 27.9358C112.178 28.6989 111.685 29.2905 111.055 29.7107C110.425 30.1265 109.698 30.3344 108.875 30.3344C108.24 30.3344 107.732 30.2294 107.351 30.0193C106.969 29.805 106.676 29.5628 106.47 29.2927C106.264 29.0183 106.105 28.7911 105.994 28.611H105.865V33.8327H104.348ZM105.84 25.19C105.84 25.9359 105.949 26.594 106.167 27.1642C106.386 27.7301 106.706 28.1738 107.126 28.4953C107.546 28.8125 108.06 28.9712 108.669 28.9712C109.303 28.9712 109.833 28.804 110.257 28.4696C110.686 28.1309 111.008 27.6765 111.222 27.1063C111.441 26.5318 111.55 25.8931 111.55 25.19C111.55 24.4955 111.443 23.8696 111.228 23.3123C111.018 22.7507 110.699 22.3069 110.27 21.9811C109.846 21.651 109.312 21.486 108.669 21.486C108.052 21.486 107.533 21.6424 107.113 21.9554C106.693 22.2641 106.375 22.6971 106.161 23.2544C105.947 23.8074 105.84 24.4526 105.84 25.19ZM119.395 30.3344C118.503 30.3344 117.721 30.1222 117.048 29.6978C116.379 29.2734 115.856 28.6796 115.479 27.9165C115.106 27.1535 114.919 26.2617 114.919 25.2414C114.919 24.2125 115.106 23.3144 115.479 22.547C115.856 21.7796 116.379 21.1837 117.048 20.7593C117.721 20.3349 118.503 20.1227 119.395 20.1227C120.287 20.1227 121.067 20.3349 121.736 20.7593C122.409 21.1837 122.932 21.7796 123.305 22.547C123.682 23.3144 123.871 24.2125 123.871 25.2414C123.871 26.2617 123.682 27.1535 123.305 27.9165C122.932 28.6796 122.409 29.2734 121.736 29.6978C121.067 30.1222 120.287 30.3344 119.395 30.3344ZM119.395 28.9712C120.073 28.9712 120.63 28.7975 121.067 28.4503C121.504 28.103 121.828 27.6465 122.038 27.0806C122.248 26.5147 122.353 25.9016 122.353 25.2414C122.353 24.5812 122.248 23.966 122.038 23.3959C121.828 22.8257 121.504 22.3648 121.067 22.0133C120.63 21.6617 120.073 21.486 119.395 21.486C118.718 21.486 118.161 21.6617 117.723 22.0133C117.286 22.3648 116.962 22.8257 116.752 23.3959C116.542 23.966 116.437 24.5812 116.437 25.2414C116.437 25.9016 116.542 26.5147 116.752 27.0806C116.962 27.6465 117.286 28.103 117.723 28.4503C118.161 28.7975 118.718 28.9712 119.395 28.9712ZM126.187 30.1287V20.2513H127.705V30.1287H126.187ZM126.959 18.6051C126.663 18.6051 126.408 18.5043 126.194 18.3028C125.984 18.1013 125.879 17.8591 125.879 17.5762C125.879 17.2932 125.984 17.051 126.194 16.8495C126.408 16.648 126.663 16.5473 126.959 16.5473C127.255 16.5473 127.508 16.648 127.718 16.8495C127.932 17.051 128.039 17.2932 128.039 17.5762C128.039 17.8591 127.932 18.1013 127.718 18.3028C127.508 18.5043 127.255 18.6051 126.959 18.6051ZM132.002 24.1868V30.1287H130.485V20.2513H131.951V21.7946H132.079C132.311 21.2931 132.663 20.8901 133.134 20.5857C133.606 20.277 134.214 20.1227 134.96 20.1227C135.629 20.1227 136.214 20.2599 136.716 20.5342C137.218 20.8043 137.608 21.2159 137.886 21.7689C138.165 22.3177 138.304 23.0122 138.304 23.8524V30.1287H136.787V23.9553C136.787 23.1794 136.585 22.5749 136.182 22.1419C135.779 21.7046 135.226 21.486 134.523 21.486C134.039 21.486 133.606 21.591 133.224 21.8011C132.847 22.0111 132.549 22.3177 132.33 22.7206C132.112 23.1236 132.002 23.6123 132.002 24.1868ZM145.373 20.2513V21.5374H140.254V20.2513H145.373ZM141.746 17.8849H143.264V27.2992C143.264 27.7279 143.326 28.0494 143.45 28.2638C143.579 28.4739 143.742 28.6153 143.939 28.6882C144.141 28.7568 144.353 28.7911 144.576 28.7911C144.743 28.7911 144.88 28.7825 144.987 28.7654C145.094 28.7439 145.18 28.7268 145.244 28.7139L145.553 30.0772C145.45 30.1158 145.307 30.1544 145.122 30.193C144.938 30.2358 144.704 30.2573 144.421 30.2573C143.993 30.2573 143.573 30.1651 143.161 29.9808C142.754 29.7964 142.415 29.5156 142.145 29.1384C141.879 28.7611 141.746 28.2852 141.746 27.7108V17.8849ZM147.656 30.1287V20.2513H149.122V21.7946H149.251C149.456 21.2673 149.789 20.8579 150.247 20.5664C150.706 20.2706 151.257 20.1227 151.9 20.1227C152.552 20.1227 153.094 20.2706 153.527 20.5664C153.964 20.8579 154.305 21.2673 154.549 21.7946H154.652C154.905 21.2845 155.285 20.8794 155.791 20.5793C156.296 20.2749 156.903 20.1227 157.61 20.1227C158.494 20.1227 159.216 20.3992 159.778 20.9522C160.339 21.501 160.62 22.3562 160.62 23.518V30.1287H159.102V23.518C159.102 22.7892 158.903 22.2684 158.504 21.9554C158.106 21.6424 157.636 21.486 157.096 21.486C156.402 21.486 155.863 21.696 155.482 22.1162C155.1 22.532 154.91 23.0593 154.91 23.6981V30.1287H153.366V23.3637C153.366 22.8021 153.184 22.3498 152.82 22.0068C152.455 21.6596 151.986 21.486 151.411 21.486C151.017 21.486 150.648 21.591 150.305 21.8011C149.967 22.0111 149.692 22.3027 149.482 22.6756C149.276 23.0443 149.174 23.4709 149.174 23.9553V30.1287H147.656ZM167.536 30.3344C166.584 30.3344 165.763 30.1244 165.073 29.7042C164.387 29.2798 163.858 28.6882 163.485 27.9294C163.116 27.1663 162.932 26.2789 162.932 25.2671C162.932 24.2554 163.116 23.3637 163.485 22.592C163.858 21.8161 164.376 21.2116 165.041 20.7786C165.71 20.3413 166.49 20.1227 167.382 20.1227C167.896 20.1227 168.404 20.2084 168.906 20.3799C169.407 20.5514 169.864 20.8301 170.275 21.2159C170.687 21.5974 171.015 22.1033 171.259 22.7335C171.504 23.3637 171.626 24.1397 171.626 25.0614V25.7044H164.012V24.3926H170.083C170.083 23.8353 169.971 23.338 169.748 22.9007C169.53 22.4634 169.217 22.1183 168.809 21.8654C168.406 21.6124 167.93 21.486 167.382 21.486C166.777 21.486 166.254 21.636 165.813 21.9361C165.375 22.2319 165.039 22.6178 164.803 23.0936C164.567 23.5695 164.449 24.0796 164.449 24.6241V25.4987C164.449 26.2446 164.578 26.8769 164.835 27.3957C165.097 27.9101 165.459 28.3024 165.922 28.5725C166.385 28.8383 166.923 28.9712 167.536 28.9712C167.935 28.9712 168.295 28.9154 168.616 28.804C168.942 28.6882 169.223 28.5167 169.459 28.2895C169.695 28.058 169.877 27.7708 170.005 27.4278L171.472 27.8394C171.317 28.3367 171.058 28.774 170.693 29.1512C170.329 29.5242 169.879 29.8157 169.343 30.0258C168.807 30.2316 168.205 30.3344 167.536 30.3344ZM175.452 24.1868V30.1287H173.934V20.2513H175.401V21.7946H175.529C175.761 21.2931 176.112 20.8901 176.584 20.5857C177.055 20.277 177.664 20.1227 178.41 20.1227C179.079 20.1227 179.664 20.2599 180.166 20.5342C180.667 20.8043 181.057 21.2159 181.336 21.7689C181.615 22.3177 181.754 23.0122 181.754 23.8524V30.1287H180.236V23.9553C180.236 23.1794 180.035 22.5749 179.632 22.1419C179.229 21.7046 178.676 21.486 177.973 21.486C177.488 21.486 177.055 21.591 176.674 21.8011C176.297 22.0111 175.999 22.3177 175.78 22.7206C175.561 23.1236 175.452 23.6123 175.452 24.1868ZM188.823 20.2513V21.5374H183.704V20.2513H188.823ZM185.196 17.8849H186.714V27.2992C186.714 27.7279 186.776 28.0494 186.9 28.2638C187.029 28.4739 187.192 28.6153 187.389 28.6882C187.59 28.7568 187.803 28.7911 188.025 28.7911C188.193 28.7911 188.33 28.7825 188.437 28.7654C188.544 28.7439 188.63 28.7268 188.694 28.7139L189.003 30.0772C188.9 30.1158 188.756 30.1544 188.572 30.193C188.388 30.2358 188.154 30.2573 187.871 30.2573C187.442 30.2573 187.022 30.1651 186.611 29.9808C186.203 29.7964 185.865 29.5156 185.595 29.1384C185.329 28.7611 185.196 28.2852 185.196 27.7108V17.8849Z" fill="black"/>
<defs>
<linearGradient id="paint0_linear_6_1770" x1="0" y1="23.1287" x2="177.573" y2="23.1287" gradientUnits="userSpaceOnUse">
<stop/>
<stop offset="0.0001" stop-color="#DDD3EF" stop-opacity="0.55"/>
<stop offset="0.4375" stop-color="#FDD9FF"/>
<stop offset="1" stop-color="#C1E7FF"/>
</linearGradient>
</defs>
</svg>
