<svg width="32" height="31" viewBox="0 0 32 31" fill="none" xmlns="http://www.w3.org/2000/svg">
<g clip-path="url(#clip0_6_1811)">
<path d="M15.9717 5.93768C9.67224 5.93768 4.29252 9.85593 2.11292 15.3868C4.29252 20.9177 9.67224 24.836 15.9717 24.836C22.2774 24.836 27.6508 20.9177 29.8304 15.3868C27.6508 9.85593 22.2774 5.93768 15.9717 5.93768ZM15.9717 21.6863C12.4944 21.6863 9.67224 18.8641 9.67224 15.3868C9.67224 11.9096 12.4944 9.0874 15.9717 9.0874C19.449 9.0874 22.2711 11.9096 22.2711 15.3868C22.2711 18.8641 19.449 21.6863 15.9717 21.6863ZM15.9717 11.6072C13.8866 11.6072 12.192 13.3017 12.192 15.3868C12.192 17.472 13.8866 19.1665 15.9717 19.1665C18.0568 19.1665 19.7513 17.472 19.7513 15.3868C19.7513 13.3017 18.0568 11.6072 15.9717 11.6072Z" fill="black"/>
</g>
<defs>
<clipPath id="clip0_6_1811">
<rect width="30.2373" height="30.2373" fill="white" transform="translate(0.853027 0.268188)"/>
</clipPath>
</defs>
</svg>
