<svg width="40" height="39" viewBox="0 0 40 39" fill="none" xmlns="http://www.w3.org/2000/svg">
<g clip-path="url(#clip0_6_1826)">
<path d="M20.1481 39.0001C30.9176 39.0001 39.6481 30.2696 39.6481 19.5001C39.6481 8.73051 30.9176 6.10352e-05 20.1481 6.10352e-05C9.37852 6.10352e-05 0.648071 8.73051 0.648071 19.5001C0.648071 30.2696 9.37852 39.0001 20.1481 39.0001Z" fill="black"/>
<path d="M26.4887 5.98547H22.1689C19.6055 5.98547 16.7542 7.06363 16.7542 10.7795C16.7667 12.0742 16.7542 13.3142 16.7542 14.7098H13.7886V19.4289H16.8459V33.0145H22.464V19.3392H26.1721L26.5076 14.6965H22.3672C22.3672 14.6965 22.3765 12.6312 22.3672 12.0315C22.3672 10.563 23.8951 10.6471 23.987 10.6471C24.7141 10.6471 26.1279 10.6493 26.4908 10.6471V5.98547H26.4887Z" fill="white"/>
</g>
<defs>
<clipPath id="clip0_6_1826">
<rect width="39" height="39" fill="white" transform="translate(0.648071)"/>
</clipPath>
</defs>
</svg>
