<svg width="63" height="16" viewBox="0 0 63 16" fill="none" xmlns="http://www.w3.org/2000/svg">
<g clip-path="url(#clip0_6_2087)">
<path d="M7.64087 15.5528C11.8608 15.5528 15.2817 12.1319 15.2817 7.91199C15.2817 3.69209 11.8608 0.271179 7.64087 0.271179C3.42097 0.271179 6.10352e-05 3.69209 6.10352e-05 7.91199C6.10352e-05 12.1319 3.42097 15.5528 7.64087 15.5528Z" fill="black"/>
<path d="M10.1253 2.61652H8.43266C7.4282 2.61652 6.31095 3.03898 6.31095 4.49499C6.31586 5.00232 6.31095 5.48819 6.31095 6.03501H5.14893V7.88414H6.34691V13.2075H8.54827V7.84901H10.0012L10.1327 6.02982H8.51034C8.51034 6.02982 8.51397 5.22057 8.51034 4.98556C8.51034 4.41017 9.10905 4.44312 9.14506 4.44312C9.42996 4.44312 9.98391 4.44395 10.1261 4.44312V2.61652H10.1253Z" fill="white"/>
</g>
<g clip-path="url(#clip1_6_2087)">
<mask id="mask0_6_2087" style="mask-type:luminance" maskUnits="userSpaceOnUse" x="23" y="0" width="16" height="16">
<path d="M31.1509 15.5528C35.3708 15.5528 38.7918 12.1319 38.7918 7.91199C38.7918 3.69209 35.3708 0.271179 31.1509 0.271179C26.931 0.271179 23.5101 3.69209 23.5101 7.91199C23.5101 12.1319 26.931 15.5528 31.1509 15.5528Z" fill="white"/>
</mask>
<g mask="url(#mask0_6_2087)">
<path d="M26.7934 31.1926C35.8596 31.1926 43.2092 23.843 43.2092 14.7768C43.2092 5.71057 35.8596 -1.63904 26.7934 -1.63904C17.7272 -1.63904 10.3776 5.71057 10.3776 14.7768C10.3776 23.843 17.7272 31.1926 26.7934 31.1926Z" fill="black"/>
</g>
<path d="M33.2999 6.35995C33.6296 6.35995 33.8969 6.0927 33.8969 5.76302C33.8969 5.43334 33.6296 5.16608 33.2999 5.16608C32.9703 5.16608 32.703 5.43334 32.703 5.76302C32.703 6.0927 32.9703 6.35995 33.2999 6.35995Z" fill="white"/>
<path d="M31.1509 6.00177C30.7731 6.00177 30.4038 6.1138 30.0897 6.3237C29.7755 6.53359 29.5307 6.83193 29.3861 7.18097C29.2416 7.53001 29.2037 7.91409 29.2774 8.28464C29.3511 8.65518 29.5331 8.99554 29.8002 9.26269C30.0674 9.52984 30.4077 9.71177 30.7783 9.78547C31.1488 9.85918 31.5329 9.82135 31.8819 9.67677C32.231 9.53219 32.5293 9.28736 32.7392 8.97322C32.9491 8.65909 33.0611 8.28978 33.0611 7.91197C33.0611 7.40536 32.8599 6.91949 32.5016 6.56126C32.1434 6.20302 31.6575 6.00177 31.1509 6.00177ZM31.1509 8.86707C30.962 8.86707 30.7774 8.81106 30.6203 8.70611C30.4632 8.60116 30.3408 8.452 30.2685 8.27747C30.1962 8.10295 30.1773 7.91091 30.2142 7.72564C30.251 7.54037 30.342 7.37019 30.4756 7.23661C30.6091 7.10304 30.7793 7.01208 30.9646 6.97522C31.1499 6.93837 31.3419 6.95728 31.5164 7.02957C31.691 7.10186 31.8401 7.22428 31.9451 7.38135C32.05 7.53841 32.106 7.72307 32.106 7.91197C32.106 8.16528 32.0054 8.40822 31.8263 8.58733C31.6472 8.76645 31.4042 8.86707 31.1509 8.86707Z" fill="white"/>
<path d="M33.5387 4.09155H28.7632C27.972 4.09155 27.3306 4.73297 27.3306 5.5242V10.2997C27.3306 11.0909 27.972 11.7324 28.7632 11.7324H33.5387C34.33 11.7324 34.9714 11.0909 34.9714 10.2997V5.5242C34.9714 4.73297 34.33 4.09155 33.5387 4.09155Z" stroke="white" stroke-width="0.244898" stroke-miterlimit="10"/>
</g>
<g clip-path="url(#clip2_6_2087)">
<path d="M55.1687 15.5528C59.1084 15.5528 62.3021 12.1319 62.3021 7.91199C62.3021 3.69209 59.1084 0.271179 55.1687 0.271179C51.229 0.271179 48.0353 3.69209 48.0353 7.91199C48.0353 12.1319 51.229 15.5528 55.1687 15.5528Z" fill="black"/>
<path d="M60.5751 4.87257C60.2147 5.0325 59.8276 5.14061 59.4206 5.1892C59.836 4.94047 60.1542 4.54631 60.3045 4.0772C59.9099 4.31156 59.4781 4.47654 59.0278 4.56499C58.6613 4.17436 58.1387 3.93048 57.5605 3.93048C56.4508 3.93048 55.5508 4.83012 55.5508 5.94052C55.5508 6.09785 55.5685 6.25134 55.6026 6.39871C53.932 6.31475 52.4509 5.51453 51.4596 4.29859C51.2865 4.59556 51.1874 4.94083 51.1874 5.30923C51.1874 6.0065 51.5423 6.62171 52.0815 6.98208C51.7623 6.97219 51.4501 6.88602 51.171 6.73078V6.75618C51.171 7.73016 51.8637 8.54229 52.7833 8.72699C52.6144 8.77328 52.4371 8.79746 52.2537 8.79746C52.124 8.79746 51.9982 8.78518 51.8753 8.76207C52.1311 9.56037 52.8734 10.1415 53.7528 10.1579C53.0648 10.6972 52.198 11.0186 51.2565 11.0186C51.0944 11.0186 50.9341 11.0089 50.7768 10.99C51.6665 11.5604 52.7228 11.8935 53.858 11.8935C57.5551 11.8935 59.577 8.83061 59.577 6.17447C59.577 6.08727 59.5751 6.00071 59.5709 5.91447C59.9648 5.62953 60.3049 5.27673 60.5751 4.87257Z" fill="white"/>
</g>
<defs>
<clipPath id="clip0_6_2087">
<rect width="15.2816" height="15.2816" fill="white" transform="translate(0 0.271118)"/>
</clipPath>
<clipPath id="clip1_6_2087">
<rect width="15.2816" height="15.2816" fill="white" transform="translate(23.5101 0.271179)"/>
</clipPath>
<clipPath id="clip2_6_2087">
<rect width="15.2816" height="15.2816" fill="white" transform="translate(47.0203 0.271179)"/>
</clipPath>
</defs>
</svg>
