<svg width="276" height="107" viewBox="0 0 276 107" fill="none" xmlns="http://www.w3.org/2000/svg">
<mask id="mask0_6_1748" style="mask-type:luminance" maskUnits="userSpaceOnUse" x="39" y="0" width="64" height="57">
<path d="M39.1896 0.508075H102.323V56.0387H39.1896V0.508075Z" fill="white"/>
</mask>
<g mask="url(#mask0_6_1748)">
<path d="M77.7593 0.727091C72.4123 1.55217 59.4912 5.68592 51.3918 10.2956C42.0872 15.5911 39.1892 20.7453 40.5774 27.241C41.7836 32.8628 44.3747 38.3775 48.7723 44.8556C53.5906 51.9415 60.8521 56.0389 69.9521 52.3021C79.0531 48.5539 92.0584 39.7991 96.7914 34.4766C102.323 28.2458 102.323 22.5316 100.272 16.7955C98.6503 12.2554 96.1809 8.95924 92.7667 5.52174C89.8766 2.61108 85.5756 0.508878 80.5686 0.508878C79.6545 0.508878 78.7166 0.579531 77.7593 0.727091Z" fill="white" fill-opacity="0.58"/>
</g>
<mask id="mask1_6_1748" style="mask-type:luminance" maskUnits="userSpaceOnUse" x="0" y="0" width="276" height="107">
<path d="M0.491821 106.242H275.1V0.508848H0.491821L0.491821 106.242Z" fill="white"/>
</mask>
<g mask="url(#mask1_6_1748)">
<path d="M62.709 57.2227C63.797 55.7471 65.25 55.2452 67.6728 55.8355C69.7863 56.3405 72.7344 57.8597 73.47 58.5175C74.5478 59.4974 74.9059 60.4846 74.7217 62.0184C74.5728 63.2747 74.2237 64.3139 73.5746 65.4798C72.6218 67.1944 71.2905 68.2408 69.5362 68.2668C67.7887 68.3053 64.1188 67.9249 62.0291 67.0801C59.9474 66.2301 59.6904 64.2037 60.3987 62.0091C61.0422 60.0097 61.7596 58.5071 62.709 57.2227Z" fill="white" fill-opacity="0.58"/>
<path d="M118.914 42.1497C109.625 42.1497 105.395 48.954 105.395 55.2741C105.395 61.5859 109.625 68.4017 118.914 68.4017C128.206 68.4017 132.437 61.5859 132.437 55.2741C132.437 48.954 128.206 42.1497 118.914 42.1497ZM118.914 67.1609C110.501 67.1609 107.512 60.7515 107.512 55.2741C107.512 49.7916 110.501 43.3883 118.914 43.3883C127.332 43.3883 130.317 49.7916 130.317 55.2741C130.317 60.7515 127.332 67.1609 118.914 67.1609Z" fill="white" fill-opacity="0.58"/>
<path d="M144.746 49.2184H141.731V44.1411C141.731 42.9804 141.084 42.9804 140.819 42.9804C140.541 42.9804 139.9 42.9804 139.9 44.1411V49.2184H136.88C136.428 49.2184 136.199 49.3878 136.199 49.7245C136.199 50.0601 136.428 50.2316 136.88 50.2316H139.9V67.2892C139.9 68.4011 140.541 68.4011 140.819 68.4011C141.084 68.4011 141.731 68.4011 141.731 67.2892V50.2316H144.746C145.196 50.2316 145.429 50.0601 145.429 49.7245C145.429 49.3878 145.196 49.2184 144.746 49.2184Z" fill="white" fill-opacity="0.58"/>
<path d="M160.06 59.8143C158.893 59.4277 155.497 58.3117 154.189 57.8804C151.408 56.9618 150.271 55.5922 150.271 53.6771C150.271 50.7861 154.272 48.9926 157.974 48.9926C160.288 48.9926 162.776 49.4134 164.931 50.543C165.955 51.0688 165.126 52.1443 164.196 51.6933C162.561 50.9098 161.363 50.0047 158.104 50.0047C155.264 50.0047 152.314 51.2028 152.314 53.4848C152.314 54.8128 153.458 55.8063 155.211 56.357C155.762 56.5326 159.693 57.8046 160.364 58.0207C164.042 59.2116 166.176 60.5271 166.176 63.1832C166.176 66.3048 162.761 68.4018 157.676 68.4018C153.4 68.4018 150.577 66.6674 149.372 65.5628C148.41 64.6858 149.597 63.7547 150.41 64.4904C151.277 65.2729 153.53 67.3886 157.82 67.3886C161.373 67.3886 164.124 65.6252 164.124 63.2975C164.124 61.0883 161.991 60.4513 160.06 59.8143Z" fill="white" fill-opacity="0.58"/>
<path d="M189.217 48.9925C188.935 48.9925 188.289 48.9925 188.289 50.1023V61.483C188.289 63.0334 188.153 64.3116 187.392 65.279C186.31 66.6393 184.205 67.3885 181.352 67.3885C178.536 67.3885 176.473 66.632 175.377 65.2458C174.614 64.2835 174.39 63.0126 174.39 61.483V50.1023C174.39 48.9925 173.755 48.9925 173.474 48.9925C173.198 48.9925 172.559 48.9925 172.559 50.1023V62.147C172.559 65.9493 176.009 68.4017 181.352 68.4017C186.675 68.4017 190.128 65.9493 190.128 62.147V50.1023C190.128 48.9925 189.49 48.9925 189.217 48.9925Z" fill="white" fill-opacity="0.58"/>
<path d="M211.95 68.034C212.905 68.6856 213.279 68.2668 213.442 68.0756C213.616 67.8823 214.013 67.4293 213.079 66.7476L201.138 57.9813C201.138 57.9813 212.802 50.0183 212.794 50.0225C213.423 49.5964 213.218 49.2691 213.114 49.1402C213.001 49.0124 212.722 48.7474 212.094 49.1704L199.005 57.9668V41.2095C199.005 40.0986 198.359 40.0986 198.081 40.0986C197.806 40.0986 197.169 40.0986 197.169 41.2095V67.289C197.169 68.4019 197.806 68.4019 198.081 68.4019C198.359 68.4019 199.005 68.4019 199.005 67.289V58.5217C199.005 58.5217 211.953 68.034 211.95 68.034Z" fill="white" fill-opacity="0.58"/>
<path d="M235.485 48.9925C235.211 48.9925 234.569 49.0319 234.569 50.1023L234.567 54.0739C233.586 51.5072 230.931 48.9925 226.58 48.9925C219.732 48.9925 216.614 54.0209 216.614 58.6877C216.614 63.3909 219.253 68.4017 226.674 68.4017C231.241 68.4017 233.625 65.7976 234.592 63.3348V67.2887C234.592 68.4017 235.211 68.4017 235.485 68.4017C235.758 68.4017 236.406 68.4017 236.406 67.2887V50.1023C236.412 49.0444 235.758 48.9925 235.485 48.9925ZM226.674 67.3885C220.807 67.3885 218.575 62.704 218.575 58.6877C218.575 54.3711 221.189 50.0046 226.674 50.0046C232.497 50.0046 234.569 54.686 234.569 58.6877C234.569 62.704 232.497 67.3885 226.674 67.3885Z" fill="white" fill-opacity="0.58"/>
</g>
</svg>
