<svg width="80" height="80" viewBox="0 0 80 80" fill="none" xmlns="http://www.w3.org/2000/svg">
<g clip-path="url(#clip0_6_1698)">
<rect x="-0.000854492" y="23.8839" width="60.4503" height="60.4503" rx="15.4676" transform="rotate(-23 -0.000854492 23.8839)" fill="black"/>
<g clip-path="url(#clip1_6_1698)">
<path d="M33.0222 24.3259C41.6221 20.6754 51.5515 24.6872 55.2019 33.2871C58.8523 41.887 54.8406 51.8164 46.2407 55.4668C37.6408 59.1173 27.7114 55.1055 24.061 46.5056C20.4311 37.9056 24.437 27.9907 33.0207 24.3265L33.0222 24.3259ZM46.8154 56.8207C56.1629 52.8529 60.5236 42.0599 56.5558 32.7124C52.588 23.3649 41.795 19.0042 32.4475 22.972C23.0999 26.9398 18.7393 37.7328 22.7071 47.0803L22.7163 47.1022C26.6786 56.4366 37.457 60.7914 46.7915 56.8292C46.7987 56.8261 46.8075 56.8224 46.8148 56.8193L46.8133 56.8199L46.8154 56.8207Z" fill="url(#paint0_linear_6_1698)"/>
<path d="M47.0548 57.3847C56.6728 53.2436 61.1618 42.133 57.1217 32.4774L57.1198 32.473C53.0203 22.815 41.866 18.3084 32.2081 22.408C22.5501 26.5075 18.0435 37.6618 22.1431 47.3197C26.2842 56.9377 37.3948 61.4267 47.0504 57.3866L47.0548 57.3847ZM32.6869 23.536C41.7225 19.7006 52.1564 23.9161 55.9918 32.9518C59.8272 41.9874 55.6117 52.4213 46.576 56.2567C37.5404 60.0921 27.1065 55.8766 23.2711 46.8409C19.4427 37.8057 23.6572 27.3774 32.6854 23.5366L32.6869 23.536ZM46.4801 56.0308C55.3904 52.2486 59.5481 41.958 55.7659 33.0477C51.9837 24.1374 41.6931 19.9797 32.7828 23.7619C23.8725 27.5441 19.7148 37.8347 23.497 46.745C27.2792 55.6553 37.5698 59.813 46.4801 56.0308ZM33.2616 24.8899C41.5496 21.3718 51.1199 25.2385 54.6379 33.5265C58.156 41.8145 54.2893 51.3848 46.0013 54.9028C37.7133 58.4209 28.143 54.5542 24.625 46.2662C24.6244 46.2648 24.6231 46.2618 24.6219 46.2589C21.1057 37.9753 24.9706 28.4092 33.2543 24.893C33.2572 24.8917 33.2587 24.8911 33.2616 24.8899Z" fill="url(#paint1_linear_6_1698)"/>
<path d="M41.7239 35.4134L41.7295 35.4266C42.4409 37.1025 44.3757 37.8842 46.0517 37.1728C46.0561 37.171 46.0604 37.1691 46.0648 37.1673C46.0692 37.1654 46.0736 37.1636 46.0779 37.1617C47.7539 36.4503 48.5356 34.5155 47.8242 32.8395C47.8223 32.8351 47.8205 32.8308 47.8186 32.8264C47.1048 31.1446 45.1616 30.3595 43.4798 31.0734C41.798 31.7873 41.013 33.7304 41.7269 35.4122L41.7239 35.4134ZM28.7476 40.9216L28.7532 40.9347C29.4646 42.6107 31.3994 43.3924 33.0753 42.681C33.0797 42.6791 33.0841 42.6773 33.0885 42.6754C33.0928 42.6736 33.0972 42.6717 33.1016 42.6698C34.7775 41.9584 35.5592 40.0236 34.8478 38.3477C34.846 38.3433 34.8441 38.3389 34.8423 38.3345C34.8404 38.3302 34.8386 38.3258 34.8367 38.3214C34.1253 36.6455 32.1905 35.8637 30.5145 36.5751L30.5014 36.5807C28.847 37.3225 28.0736 39.2366 28.7472 40.9166L28.7484 40.9195L28.7476 40.9216ZM43.4631 48.9233C43.4689 48.9208 43.4762 48.9177 43.482 48.9152C45.6622 47.9898 46.9201 45.803 46.7686 43.566L46.7639 43.5267C46.7569 43.4695 46.7409 43.4075 46.7155 43.3478C46.5646 42.9922 46.1541 42.8275 45.8 42.9779C45.5056 43.1028 45.3405 43.4068 45.3798 43.7101L45.3802 43.715C45.4785 45.3933 44.545 46.9987 42.936 47.6816C41.3271 48.3646 39.5238 47.9209 38.4041 46.7055L38.3842 46.6829C38.1915 46.4397 37.8582 46.3472 37.5638 46.4722C37.5026 46.4982 37.448 46.5317 37.3988 46.5698L37.4026 46.5664C37.1593 46.7591 37.0669 47.0925 37.1918 47.3869C37.2178 47.4481 37.2513 47.5027 37.2909 47.5512L37.2875 47.5475C38.8165 49.241 41.2648 49.8547 43.4435 48.9299C43.4508 48.9268 43.4566 48.9243 43.4639 48.9212L43.4631 48.9233Z" fill="url(#paint2_linear_6_1698)"/>
<path d="M43.7025 49.4872C46.1333 48.4107 47.5353 45.9598 47.3813 43.4452L47.3762 43.4009C47.3656 43.2747 47.3316 43.1378 47.2753 43.0052C46.9827 42.3159 46.1855 41.9938 45.4962 42.2864C44.9555 42.5159 44.6418 43.0532 44.6711 43.6084L44.6719 43.6184C44.7678 45.0396 43.9953 46.4046 42.6511 47.0062L42.6482 47.0074C41.2788 47.5577 39.7603 47.1652 38.8211 46.1277L38.8045 46.1089C38.5842 45.8533 38.2823 45.7011 37.9606 45.6725L37.9535 45.6721C37.7399 45.651 37.5109 45.6828 37.2908 45.7762C37.1829 45.822 37.0836 45.8797 36.9942 45.9486L37.0023 45.9434C36.5663 46.3142 36.4024 46.929 36.6344 47.4755C36.6975 47.6242 36.7838 47.7544 36.8881 47.8666L36.8815 47.8591C38.5402 49.7934 41.2698 50.5147 43.6994 49.492L43.7008 49.4914L43.7025 49.4872ZM43.2231 48.3578L43.2129 48.3621C41.2731 49.1855 39.0908 48.6189 37.778 47.1105L37.7563 47.0836L37.7087 46.9714L37.8209 46.9238C39.1288 48.3964 41.242 48.9338 43.122 48.1358L43.1278 48.1334C43.138 48.129 43.1497 48.1241 43.1628 48.1185C45.0355 47.3236 46.1075 45.4324 45.9499 43.5093L45.9457 43.475C45.9457 43.475 46.0103 43.3151 46.0579 43.4273C46.0579 43.4273 46.2177 43.4919 46.1055 43.5396C46.2829 45.5661 45.1745 47.5295 43.2347 48.3528L43.2231 48.3578Z" fill="url(#paint3_linear_6_1698)"/>
</g>
</g>
<defs>
<linearGradient id="paint0_linear_6_1698" x1="32.4475" y1="22.972" x2="46.8154" y2="56.8207" gradientUnits="userSpaceOnUse">
<stop stop-color="#DDD3EF" stop-opacity="0.55"/>
<stop offset="0.46875" stop-color="#FDD9FF"/>
<stop offset="0.822917" stop-color="#C1E7FF"/>
</linearGradient>
<linearGradient id="paint1_linear_6_1698" x1="32.2081" y1="22.408" x2="47.0548" y2="57.3847" gradientUnits="userSpaceOnUse">
<stop stop-color="#DDD3EF" stop-opacity="0.55"/>
<stop offset="0.5" stop-color="#FDD9FF"/>
<stop offset="1" stop-color="#C1E7FF"/>
</linearGradient>
<linearGradient id="paint2_linear_6_1698" x1="36.9896" y1="33.8266" x2="43.4077" y2="48.9468" gradientUnits="userSpaceOnUse">
<stop stop-color="#DDD3EF" stop-opacity="0.55"/>
<stop offset="0.536458" stop-color="#FDD9FF"/>
<stop offset="0.916667" stop-color="#FDD9FF"/>
</linearGradient>
<linearGradient id="paint3_linear_6_1698" x1="41.4331" y1="44.0111" x2="43.7504" y2="49.4704" gradientUnits="userSpaceOnUse">
<stop stop-color="#DDD3EF" stop-opacity="0.55"/>
<stop offset="0.479167" stop-color="#FDD9FF"/>
<stop offset="1" stop-color="#C1E7FF"/>
</linearGradient>
<clipPath id="clip0_6_1698">
<rect x="-0.000854492" y="23.8839" width="60.4503" height="60.4503" rx="15.4676" transform="rotate(-23 -0.000854492 23.8839)" fill="white"/>
</clipPath>
<clipPath id="clip1_6_1698">
<rect width="37.9973" height="37.9973" fill="white" transform="matrix(-0.920505 0.390731 0.390731 0.920505 49.6964 14.9846)"/>
</clipPath>
</defs>
</svg>
