<svg width="40" height="39" viewBox="0 0 40 39" fill="none" xmlns="http://www.w3.org/2000/svg">
<g clip-path="url(#clip0_6_1829)">
<mask id="mask0_6_1829" style="mask-type:luminance" maskUnits="userSpaceOnUse" x="0" y="0" width="40" height="39">
<path d="M19.824 39C30.5935 39 39.324 30.2696 39.324 19.5C39.324 8.73045 30.5935 0 19.824 0C9.05442 0 0.323975 8.73045 0.323975 19.5C0.323975 30.2696 9.05442 39 19.824 39Z" fill="white"/>
</mask>
<g mask="url(#mask0_6_1829)">
<path d="M8.70288 78.9141C31.8406 78.9141 50.5974 60.1572 50.5974 37.0195C50.5974 13.8818 31.8406 -4.875 8.70288 -4.875C-14.4348 -4.875 -33.1917 13.8818 -33.1917 37.0195C-33.1917 60.1572 -14.4348 78.9141 8.70288 78.9141Z" fill="black"/>
</g>
<path d="M25.3083 15.5391C26.1497 15.5391 26.8318 14.857 26.8318 14.0156C26.8318 13.1743 26.1497 12.4922 25.3083 12.4922C24.467 12.4922 23.7849 13.1743 23.7849 14.0156C23.7849 14.857 24.467 15.5391 25.3083 15.5391Z" fill="white"/>
<path d="M19.824 14.625C18.8598 14.625 17.9173 14.9109 17.1156 15.4466C16.3139 15.9823 15.689 16.7436 15.3201 17.6344C14.9511 18.5252 14.8545 19.5054 15.0426 20.4511C15.2308 21.3967 15.6951 22.2654 16.3768 22.9471C17.0586 23.6289 17.9273 24.0932 18.8729 24.2813C19.8186 24.4694 20.7988 24.3729 21.6896 24.0039C22.5803 23.6349 23.3417 23.0101 23.8774 22.2084C24.4131 21.4067 24.699 20.4642 24.699 19.5C24.699 18.2071 24.1854 16.9671 23.2711 16.0529C22.3569 15.1386 21.1169 14.625 19.824 14.625ZM19.824 21.9375C19.3419 21.9375 18.8706 21.7945 18.4698 21.5267C18.0689 21.2589 17.7565 20.8782 17.572 20.4328C17.3875 19.9874 17.3393 19.4973 17.4333 19.0245C17.5274 18.5516 17.7595 18.1173 18.1004 17.7764C18.4413 17.4355 18.8756 17.2034 19.3484 17.1093C19.8213 17.0153 20.3114 17.0636 20.7568 17.248C21.2022 17.4325 21.5828 17.745 21.8507 18.1458C22.1185 18.5466 22.2615 19.0179 22.2615 19.5C22.2615 20.1465 22.0047 20.7665 21.5475 21.2236C21.0904 21.6807 20.4704 21.9375 19.824 21.9375Z" fill="white"/>
<path d="M25.9177 9.75H13.7302C11.7109 9.75 10.074 11.387 10.074 13.4062V25.5938C10.074 27.613 11.7109 29.25 13.7302 29.25H25.9177C27.937 29.25 29.574 27.613 29.574 25.5938V13.4062C29.574 11.387 27.937 9.75 25.9177 9.75Z" stroke="white" stroke-width="0.625" stroke-miterlimit="10"/>
</g>
<defs>
<clipPath id="clip0_6_1829">
<rect width="39" height="39" fill="white" transform="translate(0.323975)"/>
</clipPath>
</defs>
</svg>
