<svg width="46" height="45" viewBox="0 0 46 45" fill="none" xmlns="http://www.w3.org/2000/svg">
<rect width="45.9351" height="44.7248" rx="3.40572" fill="black"/>
<path d="M19.2717 5.12304C16.6167 5.26868 13.6268 6.1048 11.6898 7.2457C10.6187 7.87684 9.52053 8.94491 8.60635 10.2476C7.19738 12.2516 6.65431 13.9454 6.64827 16.3297C6.64224 18.2744 6.97713 19.6769 8.00294 21.9938C8.31068 22.6896 8.41929 22.9243 9.14037 24.4347C10.6791 27.6497 11.2614 28.9336 11.4846 29.5863C11.723 30.2875 11.8286 30.6678 11.7954 30.6975C11.7743 30.7164 11.7833 30.7407 11.8165 30.7703C11.8497 30.8 11.91 30.9888 11.9794 31.2882C12.3717 32.9523 12.5436 34.5706 12.5044 36.2887C12.4803 37.3406 12.4048 38.2037 12.2449 39.2421C12.2148 39.4417 12.1937 39.6089 12.1967 39.6143C12.2118 39.6278 28.2746 39.5658 28.2897 39.5496C28.2988 39.5442 28.3229 39.2016 28.344 38.789C28.4044 37.5806 28.4345 37.4512 28.7453 37.0331C29.2974 36.2995 29.7047 36.1431 31.6598 35.9381C35.4794 35.5308 36.7134 35.1047 37.1448 34.0393C37.3802 33.4567 37.3862 32.5478 37.169 30.7541L37.1448 30.5599L37.3832 30.2552C37.6638 29.9018 37.7814 29.6834 37.8237 29.4568C37.8599 29.2626 37.8237 29.1035 37.7211 28.9821C37.6245 28.8688 37.6276 28.8284 37.7271 28.7205C37.7935 28.6504 37.8116 28.6018 37.8207 28.4589C37.8357 28.2485 37.8116 28.1325 37.6004 27.4825C37.3651 26.757 37.2836 26.3901 37.2384 25.8507C37.2172 25.581 37.2685 25.1629 37.3409 25.0119C37.4315 24.8339 37.6909 24.6828 38.231 24.4967C38.8404 24.2864 39.0878 24.1353 39.2176 23.9034C39.2779 23.7928 39.287 23.7334 39.287 23.4907C39.287 23.1724 39.2628 23.1023 39.0577 22.8326C38.8072 22.5035 38.0288 21.6836 36.8974 20.5616C35.8022 19.4719 35.4794 19.1051 35.3497 18.7976C35.2773 18.6277 35.232 17.7403 35.232 16.4835C35.229 15.2239 35.1868 14.0075 35.1264 13.6137C35.0238 12.9232 34.6195 11.812 34.1428 10.9246C33.642 9.99141 33.1321 9.32521 32.396 8.64553C31.2103 7.55048 29.6655 6.72245 27.448 5.99152C25.9575 5.50064 24.7115 5.26329 22.9978 5.15001C22.4366 5.11225 19.8268 5.09337 19.2717 5.12304Z" fill="url(#paint0_linear_6_2145)"/>
<defs>
<linearGradient id="paint0_linear_6_2145" x1="22.9676" y1="39.6162" x2="22.9676" y2="5.10845" gradientUnits="userSpaceOnUse">
<stop stop-color="#DDD3EF" stop-opacity="0.55"/>
<stop offset="0.541667" stop-color="#FDD9FF"/>
<stop offset="1" stop-color="#C1E7FF"/>
</linearGradient>
</defs>
</svg>
