<svg width="193" height="75" viewBox="0 0 193 75" fill="none" xmlns="http://www.w3.org/2000/svg">
<mask id="mask0_6_2014" style="mask-type:luminance" maskUnits="userSpaceOnUse" x="27" y="0" width="45" height="40">
<path d="M27.4756 0.62941H71.6688V39.5009H27.4756V0.62941Z" fill="white"/>
</mask>
<g mask="url(#mask0_6_2014)">
<path d="M54.4745 0.782753C50.7316 1.36031 41.6868 4.25393 36.0172 7.4807C29.504 11.1875 27.4754 14.7955 28.4471 19.3425C29.2915 23.2777 31.1052 27.1381 34.1836 31.6727C37.5564 36.6329 42.6395 39.501 49.0094 36.8853C55.3802 34.2615 64.4839 28.1331 67.797 24.4074C71.6688 20.0459 71.6688 16.0459 70.233 12.0306C69.0982 8.85258 67.3696 6.54526 64.9797 4.13901C62.9566 2.10155 59.9459 0.630005 56.441 0.630005C55.8012 0.630005 55.1446 0.679462 54.4745 0.782753Z" fill="white" fill-opacity="0.58"/>
</g>
<mask id="mask1_6_2014" style="mask-type:luminance" maskUnits="userSpaceOnUse" x="0" y="0" width="193" height="75">
<path d="M0.387207 74.6433H192.613V0.629967H0.387207L0.387207 74.6433Z" fill="white"/>
</mask>
<g mask="url(#mask1_6_2014)">
<path d="M43.9392 40.3297C44.7008 39.2968 45.7179 38.9454 47.4139 39.3586C48.8934 39.7121 50.957 40.7756 51.4719 41.236C52.2264 41.922 52.4771 42.613 52.3481 43.6866C52.2439 44.5661 51.9996 45.2935 51.5451 46.1096C50.8782 47.3098 49.9463 48.0423 48.7183 48.0605C47.4951 48.0874 44.9261 47.8212 43.4633 47.2298C42.0061 46.6348 41.8263 45.2164 42.3221 43.6801C42.7725 42.2806 43.2747 41.2287 43.9392 40.3297Z" fill="white" fill-opacity="0.58"/>
<path d="M83.2827 29.7785C76.7807 29.7785 73.8193 34.5416 73.8193 38.9656C73.8193 43.3839 76.7807 48.1549 83.2827 48.1549C89.7872 48.1549 92.7485 43.3839 92.7485 38.9656C92.7485 34.5416 89.7872 29.7785 83.2827 29.7785ZM83.2827 47.2864C77.3935 47.2864 75.3012 42.7998 75.3012 38.9656C75.3012 35.1279 77.3935 30.6456 83.2827 30.6456C89.1752 30.6456 91.2651 35.1279 91.2651 38.9656C91.2651 42.7998 89.1752 47.2864 83.2827 47.2864Z" fill="white" fill-opacity="0.58"/>
<path d="M101.365 34.7267H99.2544V31.1726C99.2544 30.3601 98.8015 30.3601 98.6161 30.3601C98.4219 30.3601 97.973 30.3601 97.973 31.1726V34.7267H95.8593C95.5425 34.7267 95.3826 34.8452 95.3826 35.0809C95.3826 35.3159 95.5425 35.4359 95.8593 35.4359H97.973V47.3762C97.973 48.1545 98.4219 48.1545 98.6161 48.1545C98.8015 48.1545 99.2544 48.1545 99.2544 47.3762V35.4359H101.365C101.68 35.4359 101.843 35.3159 101.843 35.0809C101.843 34.8452 101.68 34.7267 101.365 34.7267Z" fill="white" fill-opacity="0.58"/>
<path d="M112.085 42.1438C111.268 41.8732 108.891 41.0919 107.975 40.7901C106.028 40.147 105.233 39.1883 105.233 37.8477C105.233 35.8241 108.033 34.5686 110.624 34.5686C112.245 34.5686 113.986 34.8632 115.495 35.6539C116.211 36.0219 115.631 36.7748 114.98 36.4591C113.836 35.9106 112.997 35.2771 110.716 35.2771C108.728 35.2771 106.663 36.1158 106.663 37.7131C106.663 38.6428 107.463 39.3382 108.69 39.7237C109.076 39.8466 111.828 40.737 112.298 40.8883C114.873 41.7219 116.366 42.6428 116.366 44.502C116.366 46.6871 113.976 48.155 110.416 48.155C107.423 48.155 105.447 46.941 104.603 46.1678C103.93 45.5538 104.761 44.9021 105.33 45.4171C105.937 45.9648 107.514 47.4458 110.517 47.4458C113.004 47.4458 114.93 46.2114 114.93 44.582C114.93 43.0356 113.437 42.5897 112.085 42.1438Z" fill="white" fill-opacity="0.58"/>
<path d="M132.495 34.5685C132.297 34.5685 131.845 34.5685 131.845 35.3454V43.3119C131.845 44.3972 131.75 45.2919 131.217 45.9691C130.46 46.9213 128.987 47.4457 126.989 47.4457C125.018 47.4457 123.574 46.9162 122.807 45.9458C122.273 45.2722 122.116 44.3826 122.116 43.3119V35.3454C122.116 34.5685 121.671 34.5685 121.475 34.5685C121.281 34.5685 120.834 34.5685 120.834 35.3454V43.7767C120.834 46.4383 123.249 48.1549 126.989 48.1549C130.715 48.1549 133.132 46.4383 133.132 43.7767V35.3454C133.132 34.5685 132.686 34.5685 132.495 34.5685Z" fill="white" fill-opacity="0.58"/>
<path d="M148.408 47.8976C149.076 48.3537 149.338 48.0606 149.453 47.9267C149.574 47.7914 149.852 47.4743 149.198 46.9971L140.839 40.8607C140.839 40.8607 149.005 35.2866 148.999 35.2895C149.439 34.9913 149.296 34.7622 149.223 34.672C149.144 34.5825 148.948 34.397 148.509 34.6931L139.346 40.8505V29.1204C139.346 28.3428 138.894 28.3428 138.7 28.3428C138.507 28.3428 138.061 28.3428 138.061 29.1204V47.3761C138.061 48.1551 138.507 48.1551 138.7 48.1551C138.894 48.1551 139.346 48.1551 139.346 47.3761V41.239C139.346 41.239 148.41 47.8976 148.408 47.8976Z" fill="white" fill-opacity="0.58"/>
<path d="M164.883 34.5685C164.691 34.5685 164.241 34.5961 164.241 35.3454L164.24 38.1255C163.553 36.3288 161.694 34.5685 158.649 34.5685C153.855 34.5685 151.672 38.0884 151.672 41.3552C151.672 44.6474 153.52 48.1549 158.715 48.1549C161.912 48.1549 163.581 46.3321 164.257 44.6081V47.3759C164.257 48.1549 164.691 48.1549 164.883 48.1549C165.074 48.1549 165.527 48.1549 165.527 47.3759V35.3454C165.531 34.6049 165.074 34.5685 164.883 34.5685ZM158.715 47.4457C154.607 47.4457 153.045 44.1666 153.045 41.3552C153.045 38.3335 154.875 35.277 158.715 35.277C162.791 35.277 164.241 38.5539 164.241 41.3552C164.241 44.1666 162.791 47.4457 158.715 47.4457Z" fill="white" fill-opacity="0.58"/>
</g>
</svg>
