<svg width="28" height="28" viewBox="0 0 28 28" fill="none" xmlns="http://www.w3.org/2000/svg">
<g clip-path="url(#clip0_6_1688)">
<path d="M24.1752 17.6701C24.0621 17.2177 23.6097 16.9915 23.1573 16.9915H18.6331C17.9545 16.9915 17.5021 17.4439 17.5021 18.1226C17.5021 18.8012 17.9545 19.2536 18.6331 19.2536H20.4428L17.8414 21.855C17.5021 22.1943 17.389 22.6467 17.6152 23.0991C17.8414 23.5515 18.1807 23.7777 18.6331 23.7777H23.1573C23.8359 23.7777 24.2883 23.3253 24.2883 22.6467C24.2883 21.9681 23.8359 21.5157 23.1573 21.5157H21.3476L23.949 18.9143C24.2883 18.575 24.4014 18.1226 24.1752 17.6701Z" fill="#FF6B4B"/>
<path d="M16.3711 2.28809C10.1504 2.28809 5.06073 7.37774 5.06073 13.5984C5.06073 19.8191 10.1504 24.9088 16.3711 24.9088C17.0497 24.9088 17.5021 24.4564 17.5021 23.7777C17.5021 23.0991 17.0497 22.6467 16.3711 22.6467C11.3945 22.6467 7.3228 18.575 7.3228 13.5984C7.3228 8.62188 11.3945 4.55015 16.3711 4.55015C21.3476 4.55015 25.4194 8.62188 25.4194 13.5984C25.4194 14.2771 25.8718 14.7295 26.5504 14.7295C27.229 14.7295 27.6814 14.2771 27.6814 13.5984C27.6814 7.37774 22.5918 2.28809 16.3711 2.28809Z" fill="#FF6B4B"/>
<path d="M15.24 9.07428C14.5614 9.07428 14.109 9.52669 14.109 10.2053V13.146L11.0552 16.1998C10.6028 16.6522 10.6028 17.3308 11.0552 17.7832C11.2814 18.0095 11.5076 18.1226 11.8469 18.1226C12.1862 18.1226 12.4124 18.0095 12.6386 17.7832L16.0317 14.3901C16.258 14.1639 16.3711 13.9377 16.3711 13.5984V10.2053C16.3711 9.52669 15.9186 9.07428 15.24 9.07428Z" fill="#FF6B4B"/>
</g>
<defs>
<clipPath id="clip0_6_1688">
<rect width="27.1448" height="27.1448" fill="white" transform="translate(0.53656 0.0259399)"/>
</clipPath>
</defs>
</svg>
