<svg width="16" height="17" viewBox="0 0 16 17" fill="none" xmlns="http://www.w3.org/2000/svg">
<path d="M13.0471 15.5845C12.514 15.9642 9.0931 13.557 8.43792 13.5517C7.78274 13.5465 4.32334 15.8983 3.79641 15.5101C3.26949 15.1218 4.50826 11.1337 4.31085 10.5107C4.11343 9.8878 0.801263 7.33378 1.00874 6.71408C1.21626 6.09437 5.40276 6.03681 5.9359 5.65706C6.46905 5.27736 7.88145 1.34706 8.53668 1.3523C9.19181 1.35759 10.5404 5.31011 11.0673 5.69839C11.5943 6.08662 15.7793 6.21159 15.9768 6.83453C16.1742 7.45747 12.8212 9.95786 12.6137 10.5776C12.4062 11.1973 13.5803 15.2047 13.0471 15.5845Z" fill="#F8B84E"/>
</svg>
