<svg width="39" height="39" viewBox="0 0 39 39" fill="none" xmlns="http://www.w3.org/2000/svg">
<g clip-path="url(#clip0_6_1863)">
<path d="M20.7949 39C30.8493 39 39 30.2696 39 19.5C39 8.73045 30.8493 0 20.7949 0C10.7405 0 2.58984 8.73045 2.58984 19.5C2.58984 30.2696 10.7405 39 20.7949 39Z" fill="black"/>
<path d="M34.593 11.7432C33.6732 12.1513 32.6853 12.4272 31.6466 12.5512C32.7067 11.9164 33.5188 10.9105 33.9023 9.71331C32.8953 10.3114 31.7932 10.7325 30.6439 10.9582C29.7087 9.96128 28.375 9.33887 26.8995 9.33887C24.0673 9.33887 21.7704 11.6348 21.7704 14.4687C21.7704 14.8702 21.8156 15.2619 21.9026 15.638C17.6391 15.4237 13.8593 13.3815 11.3293 10.2783C10.8875 11.0362 10.6346 11.9174 10.6346 12.8575C10.6346 14.637 11.5404 16.2071 12.9166 17.1268C12.1019 17.1016 11.3051 16.8817 10.5927 16.4855V16.5503C10.5927 19.036 12.3607 21.1086 14.7076 21.58C14.2765 21.6981 13.824 21.7598 13.356 21.7598C13.025 21.7598 12.7039 21.7285 12.3903 21.6695C13.0431 23.7068 14.9376 25.1898 17.1817 25.2317C15.4261 26.608 13.2139 27.4284 10.8112 27.4284C10.3973 27.4284 9.98831 27.4037 9.58679 27.3553C11.8573 28.8112 14.5532 29.6611 17.4503 29.6611C26.8855 29.6611 32.0457 21.8444 32.0457 15.0657C32.0457 14.8432 32.0408 14.6223 32.0301 14.4022C33.0354 13.675 33.9033 12.7746 34.593 11.7432Z" fill="white"/>
</g>
<defs>
<clipPath id="clip0_6_1863">
<rect width="39" height="39" fill="white"/>
</clipPath>
</defs>
</svg>
