<svg width="26" height="27" viewBox="0 0 26 27" fill="none" xmlns="http://www.w3.org/2000/svg">
<path id="Vector" d="M13 0C10.4319 0 7.92144 0.773433 5.78614 2.22249C3.65083 3.67156 1.98656 5.73116 1.00378 8.14086C0.0210069 10.5506 -0.236132 13.2021 0.264882 15.7603C0.765897 18.3184 2.00256 20.6682 3.81849 22.5125C5.63442 24.3568 7.94806 25.6128 10.4668 26.1216C12.9856 26.6304 15.5964 26.3693 17.969 25.3712C20.3416 24.373 22.3695 22.6828 23.7963 20.5141C25.2231 18.3454 25.9846 15.7957 25.9846 13.1875C25.9846 11.4557 25.6488 9.74084 24.9962 8.14086C24.3437 6.54088 23.3872 5.0871 22.1815 3.86253C20.9758 2.63796 19.5444 1.66657 17.969 1.00384C16.3936 0.341105 14.7052 0 13 0ZM17.1681 15.5481C17.2898 15.6707 17.3864 15.8165 17.4523 15.9772C17.5182 16.1379 17.5521 16.3103 17.5521 16.4844C17.5521 16.6585 17.5182 16.8308 17.4523 16.9915C17.3864 17.1522 17.2898 17.2981 17.1681 17.4207C17.0474 17.5443 16.9037 17.6424 16.7455 17.7093C16.5873 17.7763 16.4176 17.8108 16.2462 17.8108C16.0747 17.8108 15.905 17.7763 15.7468 17.7093C15.5886 17.6424 15.445 17.5443 15.3242 17.4207L13 15.0469L10.6758 17.4207C10.555 17.5443 10.4114 17.6424 10.2532 17.7093C10.095 17.7763 9.92526 17.8108 9.75385 17.8108C9.58243 17.8108 9.41272 17.7763 9.25449 17.7093C9.09626 17.6424 8.95265 17.5443 8.83194 17.4207C8.71024 17.2981 8.61364 17.1522 8.54772 16.9915C8.4818 16.8308 8.44786 16.6585 8.44786 16.4844C8.44786 16.3103 8.4818 16.1379 8.54772 15.9772C8.61364 15.8165 8.71024 15.6707 8.83194 15.5481L11.1692 13.1875L8.83194 10.8269C8.58743 10.5786 8.45007 10.2418 8.45007 9.89062C8.45007 9.53944 8.58743 9.20264 8.83194 8.95431C9.07644 8.70599 9.40806 8.56648 9.75385 8.56648C10.0996 8.56648 10.4312 8.70599 10.6758 8.95431L13 11.3281L15.3242 8.95431C15.5688 8.70599 15.9004 8.56648 16.2462 8.56648C16.5919 8.56648 16.9236 8.70599 17.1681 8.95431C17.4126 9.20264 17.5499 9.53944 17.5499 9.89062C17.5499 10.2418 17.4126 10.5786 17.1681 10.8269L14.8308 13.1875L17.1681 15.5481Z" fill="black"/>
</svg>
